<?xml version="1.0" encoding="UTF-8"?><svg id="a" xmlns="http://www.w3.org/2000/svg" viewBox="0 0 43.24 7.96"><defs><style>.b{fill:#2c66b1;}</style></defs><path class="b" d="M4.35,6.99c-.98-.24-1.87-.08-2.97-.05,.16-.12,.11-.32,.14-.52,.04-.22,.17-.46,.25-.7,.43-1.21,.89-2.6,1.37-3.73,.08-.2,.24-.62,.32-.88,.06-.18,.22-.59,.19-.78-.01-.24-.19-.37-.42-.34-.25,.05-.26,.3-.32,.56-.11,.43-.35,1-.49,1.34-.52,1.26-1,2.75-1.46,4.02-.1,.25-.26,.6-.24,.83,.01,.08,.16,.25,.13,.28-.04,.04-.22,.04-.29,.06C.3,7.18-.01,7.3,0,7.62c0,.17,.16,.35,.37,.33,.14,0,.2-.11,.32-.18,.2-.1,.53-.13,.83-.16,.3-.04,.62-.05,.92-.06,.7-.01,1.38-.05,1.87,.12,.12,.05,.23,.16,.37,.14,.19-.01,.36-.2,.31-.44-.05-.2-.4-.34-.65-.4Z"/><path class="b" d="M17.35,2.31h-.05c-.7,.1-1.09,.95-1.09,1.69,0,.66,.26,1.13,.26,1.75,0,.34-.1,.59-.41,.59-.49,0-.8-.62-.8-.96,0-.18,.04-.35,.11-.5,.05-.08,.1-.15,.14-.22,.03-.04,.06-.08,.1-.12,.12-.11,.4-.2,.4-.48,0-.19-.18-.32-.35-.32-.25,0-.53,.24-.74,.57-.03,.04-.07,.09-.1,.13-.4,.56-1.01,1.24-1.45,1.54,.12-.83,.47-1.5,.85-2.09,.12-.18,.37-.48,.37-.67,0-.22-.14-.35-.32-.35-.32,0-.47,.55-.65,.55-.01,0-.08-.11-.1-.14-.18-.24-.47-.36-.78-.36-.67,0-1.4,.61-1.83,1.4-.63,.92-1.88,1.77-2.43,1.77-.46,0-.82-.32-.82-.72,0-.33,.1-.65,.24-.92h0c.28-.53,.75-.88,1.14-.88,.76,0,.17,.67,.74,.67,.25,0,.37-.2,.37-.46,0-.54-.5-.91-1.15-.91-.05,0-.11,.01-.17,.01-.66,.09-1.3,.66-1.63,1.44-.43,.59-.96,1.79-1.39,1.79-.06,0-.06-.1-.06-.24,0-.66,.24-1.25,.62-2.02,.11-.22,.24-.4,.24-.6,0-.19-.16-.36-.36-.36-.4,0-.89,.94-1.24,1.54-.35,.59-.95,1.7-1.34,1.7-.17,0-.22-.18-.22-.37,0-.83,.5-1.74,.83-2.24,.05-.08,.28-.25,.28-.43,0-.19-.17-.37-.38-.37-.32,0-.53,.44-.66,.72-.36,.76-.76,1.43-.76,2.38,0,.6,.41,1.02,.92,1.02,.62,0,1.04-.71,1.37-1.1-.01,.06-.01,.12-.01,.18,0,.53,.34,.89,.76,.89,.47,0,.91-.47,1.26-.97,.19,.5,.68,.96,1.4,.96,.53,0,1.39-.47,2.07-1.01,.03,.47,.31,.79,.7,.79,.6,0,1.18-.74,1.51-1.03-.05,.14-.07,.29-.07,.42,0,.43,.23,.77,.61,.77,.53,0,.97-.49,1.36-.91,.18,.64,.71,1.24,1.41,1.24,.74,0,1.12-.64,1.12-1.36,0-.56-.28-1.12-.28-1.66,0-.44,.17-.84,.46-1.01,.16-.08,.38-.05,.38-.37,0-.23-.18-.34-.38-.34Zm-4.67,2.25c-.35,.36-1.1,1.27-1.43,1.27-.04,0-.05-.05-.05-.11,0-.33,.12-.66,.25-.95h0c.06-.14,.12-.26,.18-.35,.23-.37,.62-.85,1.19-.85,.11,0,.26,.2,.26,.42,0,.16-.26,.42-.41,.56Z"/><path class="b" d="M42.93,4.06c-.2,0-.37,.19-.49,.37-.4,.56-1.01,1.24-1.45,1.54,.12-.83,.47-1.5,.85-2.09,.12-.18,.37-.48,.37-.67,0-.22-.14-.35-.32-.35-.32,0-.47,.55-.65,.55-.01,0-.08-.11-.1-.14-.18-.24-.47-.36-.78-.36-.74,0-1.55,.74-1.96,1.65-.3,.44-.61,1.04-.89,1.37-.05,.07-.34,.42-.49,.42-.06,0-.08-.05-.08-.13,.01-.47,.22-.85,.38-1.16,.2-.38,.56-.79,.56-1.3,0-.64-.83-.7-.83-.83,0-.06,.1-.22,.11-.24,.06-.17,.08-.31,.08-.41,0-.48-.32-.7-.77-.7-.05,0-.11,.01-.16,.01-.46,.07-.98,.41-.98,.98,0,.61,.58,.67,.61,.82,0,.18-.33,.58-.53,.95-.43,.6-.94,1.75-1.37,1.75-.06,0-.06-.1-.06-.24,0-.66,.24-1.25,.62-2.02,.11-.22,.24-.4,.24-.6,0-.19-.16-.36-.36-.36-.4,0-.89,.94-1.24,1.54-.35,.59-.95,1.7-1.34,1.7-.17,0-.22-.18-.22-.37,0-.4,.12-.82,.28-1.2,.03-.05,.05-.1,.06-.13,.16-.36,.34-.68,.49-.91,.05-.08,.28-.25,.28-.43,0-.19-.17-.37-.38-.37-.32,0-.53,.44-.66,.72-.14,.29-.27,.57-.4,.85-.22,.27-.47,.7-.8,.85-.04,.04-.35,.17-.48,.17-.02,0-.04-.01-.05-.02,.1-.24,.4-.89,.4-1.45,0-.18,.02-.71-.38-.71,0,0-.19-.24-.66-.24h-.08c-.72,.09-1.35,.84-1.63,1.69l-.02,.03c-.4,.55-.79,1.07-1.28,1.51,0,0-.13,.13-.13,.05,0-.55,.2-1.12,.34-1.49,.42-1.15,.96-2.15,1.43-3.25,.07-.17,.16-.42,.16-.62s-.1-.41-.36-.41c-.23,0-.43,.16-.56,.28-1.03,.96-1.94,2.23-2.84,3.38-.02,.02-.04,.04-.05,.04s-.01-.01-.01-.05c0-.08,.04-.26,.05-.34,.07-.71,.24-1.25,.34-1.88,.04-.22,.08-.43,.08-.64s-.07-.22-.12-.42c-.08-.31-.11-.41-.35-.41-.29,0-.3,.24-.37,.47-.11,.32-.31,.64-.47,.94-.52,.95-1.04,1.75-1.64,2.59-.66,.91-1.39,1.94-2.12,2.82-.12,.14-.29,.25-.29,.42,0,.22,.16,.36,.36,.36,.25,0,.47-.37,.66-.61,1.2-1.52,2.41-3.15,3.42-4.79-.1,.52-.23,1.04-.23,1.69,0,.47,.08,.97,.49,.97,.36,0,.61-.48,.8-.74,.66-.91,1.39-1.83,2.1-2.59,0,.01-.01,.01-.01,.02-.3,.7-.6,1.31-.92,2.09-.26,.62-.56,1.3-.56,2.22,0,.54,.24,.78,.54,.78,.52,0,1.05-.54,1.5-1.11,.12,.51,.45,.87,1.02,.87,.68,0,.92-.77,1.11-.77,.05,0,.13,.01,.2,.01,.42,0,.79-.17,1.1-.39,0,.07-.02,.13-.02,.21,0,.6,.41,1.02,.92,1.02,.62,0,1.04-.71,1.37-1.1-.01,.06-.01,.12-.01,.18,0,.53,.34,.89,.76,.89,.72,0,1.38-1.12,1.76-1.76,.02-.03,.04-.06,.06-.09,.18-.17,.72-1.32,.89-1.32,.16,0,.43,.13,.43,.22,0,.11-.19,.4-.26,.53-.29,.53-.67,1.15-.67,1.85,0,.49,.28,.84,.76,.84,.45,0,.86-.44,1.22-.94,.12,.28,.34,.46,.62,.46,.6,0,1.17-.74,1.51-1.03-.05,.14-.07,.29-.07,.42,0,.43,.23,.77,.61,.77,.54,0,1-.52,1.39-.95,.23-.25,.95-1.1,.95-1.4,0-.18-.11-.3-.31-.3Zm-14.3,1.98h-.04c-.28,0-.36-.29-.36-.6,0-.22,.05-.46,.11-.61h0c.1,.33,.44,.69,.68,.85,0,.14-.29,.35-.4,.36Zm.73-.97c-.19,0-.46-.47-.46-1.02,0-.12,.11-.49,.46-.49h.02c.13,.02,.16,.18,.31,.18h.05c-.01,.5-.3,1.33-.38,1.33Zm7.02-2.27s-.32-.16-.34-.2c0-.06,.07-.17,.11-.2,.07-.06,.18-.11,.3-.11,.04,0,.07,0,.11,.01-.01,.11-.1,.42-.18,.5Zm3.92,1.76c-.35,.36-1.1,1.27-1.43,1.27-.04,0-.05-.05-.05-.11,0-.32,.11-.64,.24-.92,.07-.11,.13-.22,.17-.33,0-.01,.02-.03,.02-.04,.23-.37,.62-.85,1.19-.85,.11,0,.26,.2,.26,.42,0,.16-.26,.42-.41,.56Z"/></svg>